<mxfile host="app.diagrams.net" modified="2024-07-10T18:16:42.054Z" agent="Mozilla/5.0 (Windows NT 10.0; Win64; x64) AppleWebKit/537.36 (KHTML, like Gecko) Chrome/126.0.0.0 Safari/537.36" etag="_OV7HrjlRwKqlfjMTPvp" version="24.6.4" type="github">
  <diagram name="Page-1" id="QOBgb7QRogtDsL0T9e42">
    <mxGraphModel dx="1032" dy="501" grid="1" gridSize="10" guides="1" tooltips="1" connect="1" arrows="1" fold="1" page="1" pageScale="1" pageWidth="827" pageHeight="1169" math="0" shadow="0">
      <root>
        <mxCell id="0" />
        <mxCell id="1" parent="0" />
        <mxCell id="u-Y-uGm8pGjQMeey_t9p-1" value="Clients and Customercare interaction" style="ellipse;whiteSpace=wrap;html=1;" vertex="1" parent="1">
          <mxGeometry x="214" y="250" width="120" height="80" as="geometry" />
        </mxCell>
        <mxCell id="u-Y-uGm8pGjQMeey_t9p-2" value="" style="endArrow=classic;html=1;rounded=0;" edge="1" parent="1">
          <mxGeometry width="50" height="50" relative="1" as="geometry">
            <mxPoint x="273.5" y="330" as="sourcePoint" />
            <mxPoint x="274" y="390" as="targetPoint" />
          </mxGeometry>
        </mxCell>
        <mxCell id="u-Y-uGm8pGjQMeey_t9p-4" value="Customer Care posts reports to db which alerting Administrative Director" style="shape=parallelogram;perimeter=parallelogramPerimeter;whiteSpace=wrap;html=1;fixedSize=1;" vertex="1" parent="1">
          <mxGeometry x="194" y="390" width="160" height="90" as="geometry" />
        </mxCell>
        <mxCell id="u-Y-uGm8pGjQMeey_t9p-5" value="" style="endArrow=classic;html=1;rounded=0;exitX=0.447;exitY=1.005;exitDx=0;exitDy=0;exitPerimeter=0;" edge="1" parent="1" source="u-Y-uGm8pGjQMeey_t9p-4">
          <mxGeometry width="50" height="50" relative="1" as="geometry">
            <mxPoint x="264" y="490" as="sourcePoint" />
            <mxPoint x="263.5" y="540" as="targetPoint" />
          </mxGeometry>
        </mxCell>
        <mxCell id="u-Y-uGm8pGjQMeey_t9p-6" value="Administrative Director&amp;nbsp; analyses the database report to learn the percentages of request" style="rounded=0;whiteSpace=wrap;html=1;" vertex="1" parent="1">
          <mxGeometry x="164" y="540" width="190" height="80" as="geometry" />
        </mxCell>
        <mxCell id="u-Y-uGm8pGjQMeey_t9p-7" value="Adm Director Rasises alert to Technical and Board for meeting of advice" style="rhombus;whiteSpace=wrap;html=1;" vertex="1" parent="1">
          <mxGeometry x="174" y="680" width="180" height="220" as="geometry" />
        </mxCell>
        <mxCell id="u-Y-uGm8pGjQMeey_t9p-8" value="Advisors Alerts" style="ellipse;whiteSpace=wrap;html=1;aspect=fixed;" vertex="1" parent="1">
          <mxGeometry x="474" y="750" width="80" height="80" as="geometry" />
        </mxCell>
        <mxCell id="u-Y-uGm8pGjQMeey_t9p-9" value="Engineers" style="ellipse;whiteSpace=wrap;html=1;aspect=fixed;" vertex="1" parent="1">
          <mxGeometry x="34" y="745" width="80" height="80" as="geometry" />
        </mxCell>
        <mxCell id="u-Y-uGm8pGjQMeey_t9p-10" value="" style="endArrow=classic;html=1;rounded=0;" edge="1" parent="1">
          <mxGeometry width="50" height="50" relative="1" as="geometry">
            <mxPoint x="263.5" y="620" as="sourcePoint" />
            <mxPoint x="264" y="690" as="targetPoint" />
          </mxGeometry>
        </mxCell>
        <mxCell id="u-Y-uGm8pGjQMeey_t9p-13" value="" style="endArrow=classic;html=1;rounded=0;" edge="1" parent="1">
          <mxGeometry width="50" height="50" relative="1" as="geometry">
            <mxPoint x="354" y="789.5" as="sourcePoint" />
            <mxPoint x="474" y="790" as="targetPoint" />
          </mxGeometry>
        </mxCell>
        <mxCell id="u-Y-uGm8pGjQMeey_t9p-15" value="" style="endArrow=classic;html=1;rounded=0;" edge="1" parent="1">
          <mxGeometry width="50" height="50" relative="1" as="geometry">
            <mxPoint x="174" y="789.5" as="sourcePoint" />
            <mxPoint x="114" y="789.5" as="targetPoint" />
          </mxGeometry>
        </mxCell>
        <mxCell id="u-Y-uGm8pGjQMeey_t9p-16" value="" style="endArrow=classic;html=1;rounded=0;exitX=0.408;exitY=0.04;exitDx=0;exitDy=0;exitPerimeter=0;" edge="1" parent="1" source="u-Y-uGm8pGjQMeey_t9p-9">
          <mxGeometry width="50" height="50" relative="1" as="geometry">
            <mxPoint x="64" y="720" as="sourcePoint" />
            <mxPoint x="64" y="580" as="targetPoint" />
          </mxGeometry>
        </mxCell>
        <mxCell id="u-Y-uGm8pGjQMeey_t9p-17" value="" style="endArrow=classic;html=1;rounded=0;" edge="1" parent="1" target="u-Y-uGm8pGjQMeey_t9p-6">
          <mxGeometry width="50" height="50" relative="1" as="geometry">
            <mxPoint x="64" y="580" as="sourcePoint" />
            <mxPoint x="154" y="590" as="targetPoint" />
          </mxGeometry>
        </mxCell>
        <mxCell id="u-Y-uGm8pGjQMeey_t9p-18" value="End" style="ellipse;whiteSpace=wrap;html=1;" vertex="1" parent="1">
          <mxGeometry x="204" y="980" width="120" height="80" as="geometry" />
        </mxCell>
        <mxCell id="u-Y-uGm8pGjQMeey_t9p-19" value="" style="endArrow=classic;html=1;rounded=0;" edge="1" parent="1">
          <mxGeometry width="50" height="50" relative="1" as="geometry">
            <mxPoint x="263.5" y="900" as="sourcePoint" />
            <mxPoint x="263.5" y="980" as="targetPoint" />
          </mxGeometry>
        </mxCell>
        <mxCell id="u-Y-uGm8pGjQMeey_t9p-21" value="" style="endArrow=classic;html=1;rounded=0;" edge="1" parent="1" source="u-Y-uGm8pGjQMeey_t9p-20">
          <mxGeometry width="50" height="50" relative="1" as="geometry">
            <mxPoint x="554" y="789.5" as="sourcePoint" />
            <mxPoint x="664" y="789.5" as="targetPoint" />
          </mxGeometry>
        </mxCell>
        <mxCell id="u-Y-uGm8pGjQMeey_t9p-22" value="" style="endArrow=classic;html=1;rounded=0;" edge="1" parent="1" target="u-Y-uGm8pGjQMeey_t9p-20">
          <mxGeometry width="50" height="50" relative="1" as="geometry">
            <mxPoint x="554" y="789.5" as="sourcePoint" />
            <mxPoint x="664" y="789.5" as="targetPoint" />
          </mxGeometry>
        </mxCell>
        <mxCell id="u-Y-uGm8pGjQMeey_t9p-20" value="Board Advices" style="rhombus;whiteSpace=wrap;html=1;" vertex="1" parent="1">
          <mxGeometry x="644" y="750" width="150" height="90" as="geometry" />
        </mxCell>
        <mxCell id="u-Y-uGm8pGjQMeey_t9p-23" value="" style="endArrow=classic;html=1;rounded=0;" edge="1" parent="1">
          <mxGeometry width="50" height="50" relative="1" as="geometry">
            <mxPoint x="718.5" y="750" as="sourcePoint" />
            <mxPoint x="719" y="630" as="targetPoint" />
          </mxGeometry>
        </mxCell>
        <mxCell id="u-Y-uGm8pGjQMeey_t9p-25" value="Strategic Plan&amp;nbsp; being developed" style="rounded=0;whiteSpace=wrap;html=1;" vertex="1" parent="1">
          <mxGeometry x="654" y="560" width="120" height="70" as="geometry" />
        </mxCell>
        <mxCell id="u-Y-uGm8pGjQMeey_t9p-26" value="Implementation of Strategic Plan" style="shape=parallelogram;perimeter=parallelogramPerimeter;whiteSpace=wrap;html=1;fixedSize=1;" vertex="1" parent="1">
          <mxGeometry x="644" y="400" width="120" height="60" as="geometry" />
        </mxCell>
        <mxCell id="u-Y-uGm8pGjQMeey_t9p-27" value="" style="endArrow=classic;html=1;rounded=0;entryX=0.411;entryY=1.026;entryDx=0;entryDy=0;entryPerimeter=0;" edge="1" parent="1" target="u-Y-uGm8pGjQMeey_t9p-26">
          <mxGeometry width="50" height="50" relative="1" as="geometry">
            <mxPoint x="694" y="560" as="sourcePoint" />
            <mxPoint x="694" y="490" as="targetPoint" />
          </mxGeometry>
        </mxCell>
        <mxCell id="u-Y-uGm8pGjQMeey_t9p-28" value="System Admin Hires to Support Clients" style="rounded=0;whiteSpace=wrap;html=1;" vertex="1" parent="1">
          <mxGeometry x="634" y="270" width="120" height="60" as="geometry" />
        </mxCell>
        <mxCell id="u-Y-uGm8pGjQMeey_t9p-29" value="" style="endArrow=classic;html=1;rounded=0;entryX=0.5;entryY=1;entryDx=0;entryDy=0;" edge="1" parent="1" target="u-Y-uGm8pGjQMeey_t9p-28">
          <mxGeometry width="50" height="50" relative="1" as="geometry">
            <mxPoint x="694" y="400" as="sourcePoint" />
            <mxPoint x="694" y="340" as="targetPoint" />
          </mxGeometry>
        </mxCell>
        <mxCell id="u-Y-uGm8pGjQMeey_t9p-30" value="" style="endArrow=classic;html=1;rounded=0;entryX=0.939;entryY=0.728;entryDx=0;entryDy=0;entryPerimeter=0;" edge="1" parent="1">
          <mxGeometry width="50" height="50" relative="1" as="geometry">
            <mxPoint x="631.32" y="290" as="sourcePoint" />
            <mxPoint x="334.00000000000006" y="288.24" as="targetPoint" />
          </mxGeometry>
        </mxCell>
      </root>
    </mxGraphModel>
  </diagram>
</mxfile>
